<svg viewBox="0 0 435 151" xmlns="http://www.w3.org/2000/svg" xml:space="preserve" style="fill-rule:evenodd;clip-rule:evenodd;stroke-linejoin:round;stroke-miterlimit:2"><g transform="scale(4.3436 1.50854)"><path d="M100 5c0-2.76-.778-5-1.737-5H1.737C.778 0 0 2.24 0 5v90c0 2.76.778 5 1.737 5h96.526c.959 0 1.737-2.24 1.737-5V5Z" style="fill:#fff"/><clipPath id="a"><path d="M100 5c0-2.76-.778-5-1.737-5H1.737C.778 0 0 2.24 0 5v90c0 2.76.778 5 1.737 5h96.526c.959 0 1.737-2.24 1.737-5V5Z"/></clipPath><g clip-path="url(#a)"><path d="m18 0 18 10.498v21.004L18 42 0 31.502V10.498L18 0ZM2 11.693v18.614l16 9.332 16-9.332V11.693L18 2.36 2 11.693Z" style="fill-rule:nonzero" transform="matrix(.52677 0 0 1.51676 8.383 18.14)"/><path d="m26 21-5 2.59V24h5v4H10v-4h5v-.437L10 21v-5l8 4.297L26 16" style="fill-rule:nonzero" transform="matrix(.52677 0 0 1.51676 8.383 18.14)"/><path d="M.715-.464H.538a.187.187 0 0 0-.015-.049.12.12 0 0 0-.072-.062.18.18 0 0 0-.145.018.16.16 0 0 0-.059.075.297.297 0 0 0-.02.118c0 .049.006.089.02.122a.161.161 0 0 0 .059.073.178.178 0 0 0 .143.017.138.138 0 0 0 .042-.021.131.131 0 0 0 .03-.036.131.131 0 0 0 .017-.047l.177.001a.298.298 0 0 1-.19.242.367.367 0 0 1-.133.023.357.357 0 0 1-.177-.044.308.308 0 0 1-.123-.127.42.42 0 0 1-.045-.203c0-.08.016-.147.046-.203a.316.316 0 0 1 .124-.127.395.395 0 0 1 .297-.025c.038.012.071.03.099.053a.29.29 0 0 1 .102.202Z" style="fill-rule:nonzero" transform="matrix(8.6984 0 0 25.04572 35.163 41.875)"/><path d="M.31.01a.302.302 0 0 1-.148-.034.228.228 0 0 1-.095-.097.32.32 0 0 1-.033-.15.32.32 0 0 1 .033-.148.242.242 0 0 1 .095-.098.274.274 0 0 1 .143-.036.278.278 0 0 1 .19.072.251.251 0 0 1 .054.088c.013.034.02.074.02.119v.043H.095v-.101h.312a.09.09 0 0 0-.013-.049.088.088 0 0 0-.035-.034.107.107 0 0 0-.051-.012.1.1 0 0 0-.052.013.096.096 0 0 0-.051.085v.103a.13.13 0 0 0 .013.058c.009.017.022.03.038.039a.133.133 0 0 0 .099.008.1.1 0 0 0 .032-.019.095.095 0 0 0 .021-.031l.159.005a.2.2 0 0 1-.131.154A.326.326 0 0 1 .31.01Z" style="fill-rule:nonzero" transform="matrix(8.6984 0 0 25.04572 41.776 41.875)"/><path d="M.055 0v-.545h.169v.099h.005a.148.148 0 0 1 .049-.08.124.124 0 0 1 .079-.027l.024.002a.15.15 0 0 1 .024.004v.151C.397-.398.386-.401.373-.402a.26.26 0 0 0-.036-.003.116.116 0 0 0-.056.014.105.105 0 0 0-.052.095V0H.055Z" style="fill-rule:nonzero" transform="matrix(8.6984 0 0 25.04572 47.02 41.875)"/><path d="M.363-.545v.127H.019v-.127h.344ZM.091-.676h.174v.504c0 .011.001.02.005.026a.026.026 0 0 0 .015.014.055.055 0 0 0 .024.004c.006 0 .013 0 .021-.002a.187.187 0 0 0 .017-.003l.026.125a.245.245 0 0 1-.035.009.263.263 0 0 1-.054.007.238.238 0 0 1-.104-.015.132.132 0 0 1-.067-.053.165.165 0 0 1-.022-.092v-.524Z" style="fill-rule:nonzero" transform="matrix(8.6984 0 0 25.04572 50.9 41.875)"/><path d="M.055 0v-.545h.174V0H.055Zm.087-.609a.092.092 0 0 1-.063-.024.08.08 0 0 1-.026-.059.08.08 0 0 1 .026-.059.092.092 0 0 1 .063-.024c.025 0 .046.008.063.024a.08.08 0 0 1 .026.059.08.08 0 0 1-.026.059.088.088 0 0 1-.063.024Z" style="fill-rule:nonzero" transform="matrix(8.6984 0 0 25.04572 54.351 41.875)"/><path d="M.365-.545v.127H.014v-.127h.351ZM.087 0v-.573a.21.21 0 0 1 .024-.105.154.154 0 0 1 .066-.063.232.232 0 0 1 .098-.02.369.369 0 0 1 .116.015l-.028.127A.114.114 0 0 0 .34-.624C.331-.626.322-.626.314-.626c-.02 0-.034.004-.042.013a.058.058 0 0 0-.011.037V0H.087Z" style="fill-rule:nonzero" transform="matrix(8.6984 0 0 25.04572 56.82 41.875)"/><path d="M.055 0v-.545h.174V0H.055Zm.087-.609a.092.092 0 0 1-.063-.024.08.08 0 0 1-.026-.059.08.08 0 0 1 .026-.059.092.092 0 0 1 .063-.024c.025 0 .046.008.063.024a.08.08 0 0 1 .026.059.08.08 0 0 1-.026.059.088.088 0 0 1-.063.024Z" style="fill-rule:nonzero" transform="matrix(8.6984 0 0 25.04572 60.244 41.875)"/><path d="M.31.01a.302.302 0 0 1-.148-.034.228.228 0 0 1-.095-.097.32.32 0 0 1-.033-.15.32.32 0 0 1 .033-.148.242.242 0 0 1 .095-.098.274.274 0 0 1 .143-.036.278.278 0 0 1 .19.072.251.251 0 0 1 .054.088c.013.034.02.074.02.119v.043H.095v-.101h.312a.09.09 0 0 0-.013-.049.088.088 0 0 0-.035-.034.107.107 0 0 0-.051-.012.1.1 0 0 0-.052.013.096.096 0 0 0-.051.085v.103a.13.13 0 0 0 .013.058c.009.017.022.03.038.039a.133.133 0 0 0 .099.008.1.1 0 0 0 .032-.019.095.095 0 0 0 .021-.031l.159.005a.2.2 0 0 1-.131.154A.326.326 0 0 1 .31.01Z" style="fill-rule:nonzero" transform="matrix(8.6984 0 0 25.04572 62.712 41.875)"/><path d="M.254.008a.204.204 0 0 1-.109-.031.217.217 0 0 1-.079-.094.36.36 0 0 1-.03-.155c0-.065.01-.117.031-.159a.201.201 0 0 1 .26-.107c.02.01.037.023.05.038a.157.157 0 0 1 .031.048h.003v-.275h.174V0H.413v-.088H.408a.196.196 0 0 1-.032.047.154.154 0 0 1-.05.035.174.174 0 0 1-.072.014Zm.061-.135a.084.084 0 0 0 .054-.018.112.112 0 0 0 .034-.051.222.222 0 0 0 .012-.077.222.222 0 0 0-.012-.077.114.114 0 0 0-.034-.05.09.09 0 0 0-.054-.017.085.085 0 0 0-.055.018.109.109 0 0 0-.034.05.216.216 0 0 0-.012.076c0 .03.004.055.012.077a.112.112 0 0 0 .034.051.085.085 0 0 0 .055.018Z" style="fill-rule:nonzero" transform="matrix(8.6984 0 0 25.04572 67.958 41.875)"/><path d="M.055 0v-.727h.176v.307H.24l.241-.307h.207L.43-.403.692 0h-.21L.301-.286l-.07.089V0H.055Z" style="fill-rule:nonzero" transform="matrix(8.6984 0 0 25.04572 35.163 72.258)"/><path d="M.055 0v-.545h.174V0H.055Zm.087-.609a.092.092 0 0 1-.063-.024.08.08 0 0 1-.026-.059.08.08 0 0 1 .026-.059.092.092 0 0 1 .063-.024c.025 0 .046.008.063.024a.08.08 0 0 1 .026.059.08.08 0 0 1-.026.059.088.088 0 0 1-.063.024Z" style="fill-rule:nonzero" transform="matrix(8.6984 0 0 25.04572 41.566 72.258)"/><path d="M.055 0v-.545h.169v.099h.005a.148.148 0 0 1 .049-.08.124.124 0 0 1 .079-.027l.024.002a.15.15 0 0 1 .024.004v.151C.397-.398.386-.401.373-.402a.26.26 0 0 0-.036-.003.116.116 0 0 0-.056.014.105.105 0 0 0-.052.095V0H.055Z" style="fill-rule:nonzero" transform="matrix(8.6984 0 0 25.04572 44.034 72.258)"/><path d="M.055 0v-.727h.174v.275h.003A.157.157 0 0 1 .263-.5a.161.161 0 0 1 .05-.038.2.2 0 0 1 .18.015c.033.02.06.051.08.092a.352.352 0 0 1 .031.159.36.36 0 0 1-.03.155.215.215 0 0 1-.078.094.21.21 0 0 1-.11.031.174.174 0 0 1-.072-.014.154.154 0 0 1-.05-.035.196.196 0 0 1-.032-.047H.227V0H.055Zm.17-.273c0 .03.004.055.012.077a.112.112 0 0 0 .034.051.089.089 0 0 0 .055.018.084.084 0 0 0 .054-.018.112.112 0 0 0 .034-.051.224.224 0 0 0 .011-.077.218.218 0 0 0-.011-.076.109.109 0 0 0-.034-.05.084.084 0 0 0-.054-.018.09.09 0 0 0-.055.017.114.114 0 0 0-.034.05.222.222 0 0 0-.012.077Z" style="fill-rule:nonzero" transform="matrix(8.6984 0 0 25.04572 47.697 72.258)"/><path d="M.161.205A.37.37 0 0 1 .102.2.243.243 0 0 1 .055.187L.093.061a.183.183 0 0 0 .046.01.06.06 0 0 0 .036-.007.052.052 0 0 0 .024-.028L.205.02.011-.545h.182l.101.389h.005l.102-.389h.183L.379.052a.242.242 0 0 1-.043.079.185.185 0 0 1-.069.054.257.257 0 0 1-.106.02Z" style="fill-rule:nonzero" transform="matrix(8.6984 0 0 25.04572 53.11 72.258)"/><path d="M.055 0v-.727h.3a.29.29 0 0 1 .142.032.22.22 0 0 1 .091.088.259.259 0 0 1 .033.132c0 .05-.011.094-.033.131a.214.214 0 0 1-.094.087.306.306 0 0 1-.144.031H.165v-.138h.152a.148.148 0 0 0 .067-.014.096.096 0 0 0 .041-.039.121.121 0 0 0 .014-.058.122.122 0 0 0-.014-.059.1.1 0 0 0-.041-.038.148.148 0 0 0-.067-.014H.231V0H.055Z" style="fill-rule:nonzero" transform="matrix(8.6984 0 0 25.04572 60.161 72.258)"/><path d="M.209.009a.245.245 0 0 1-.093-.017.139.139 0 0 1-.063-.054.153.153 0 0 1-.024-.089c0-.031.006-.056.016-.077a.146.146 0 0 1 .044-.051.202.202 0 0 1 .065-.029.398.398 0 0 1 .078-.014l.075-.009a.108.108 0 0 0 .042-.014.032.032 0 0 0 .013-.026v-.002a.052.052 0 0 0-.019-.042.081.081 0 0 0-.051-.015.09.09 0 0 0-.055.015.068.068 0 0 0-.027.041L.05-.379a.189.189 0 0 1 .036-.089.2.2 0 0 1 .082-.062.373.373 0 0 1 .222-.01c.029.008.054.02.076.035a.172.172 0 0 1 .051.057.162.162 0 0 1 .018.077V0H.371v-.076H.367a.171.171 0 0 1-.037.047A.16.16 0 0 1 .277 0a.238.238 0 0 1-.068.009Zm.053-.113a.107.107 0 0 0 .087-.043.084.084 0 0 0 .014-.047v-.052a.075.075 0 0 1-.018.007C.338-.237.33-.234.322-.233l-.026.005a.257.257 0 0 1-.025.004.21.21 0 0 0-.042.012.08.08 0 0 0-.026.021.054.054 0 0 0-.009.031c0 .018.006.032.019.041a.08.08 0 0 0 .049.015Z" style="fill-rule:nonzero" transform="matrix(8.6984 0 0 25.04572 65.666 72.258)"/><path d="M.055 0v-.545h.169v.099h.005a.148.148 0 0 1 .049-.08.124.124 0 0 1 .079-.027l.024.002a.15.15 0 0 1 .024.004v.151C.397-.398.386-.401.373-.402a.26.26 0 0 0-.036-.003.116.116 0 0 0-.056.014.105.105 0 0 0-.052.095V0H.055Z" style="fill-rule:nonzero" transform="matrix(8.6984 0 0 25.04572 70.76 72.258)"/><path d="M.363-.545v.127H.019v-.127h.344ZM.091-.676h.174v.504c0 .011.001.02.005.026a.026.026 0 0 0 .015.014.055.055 0 0 0 .024.004c.006 0 .013 0 .021-.002a.187.187 0 0 0 .017-.003l.026.125a.245.245 0 0 1-.035.009.263.263 0 0 1-.054.007.238.238 0 0 1-.104-.015.132.132 0 0 1-.067-.053.165.165 0 0 1-.022-.092v-.524Z" style="fill-rule:nonzero" transform="matrix(8.6984 0 0 25.04572 74.639 72.258)"/><path d="M.229-.311V0H.055v-.545H.22v.1h.006a.153.153 0 0 1 .062-.079.187.187 0 0 1 .104-.029.177.177 0 0 1 .166.098.216.216 0 0 1 .023.107V0H.408v-.314a.104.104 0 0 0-.023-.071A.084.084 0 0 0 .32-.41a.095.095 0 0 0-.048.012.081.081 0 0 0-.032.034.119.119 0 0 0-.011.053Z" style="fill-rule:nonzero" transform="matrix(8.6984 0 0 25.04572 78.09 72.258)"/><path d="M.31.01a.302.302 0 0 1-.148-.034.228.228 0 0 1-.095-.097.32.32 0 0 1-.033-.15.32.32 0 0 1 .033-.148.242.242 0 0 1 .095-.098.274.274 0 0 1 .143-.036.278.278 0 0 1 .19.072.251.251 0 0 1 .054.088c.013.034.02.074.02.119v.043H.095v-.101h.312a.09.09 0 0 0-.013-.049.088.088 0 0 0-.035-.034.107.107 0 0 0-.051-.012.1.1 0 0 0-.052.013.096.096 0 0 0-.051.085v.103a.13.13 0 0 0 .013.058c.009.017.022.03.038.039a.133.133 0 0 0 .099.008.1.1 0 0 0 .032-.019.095.095 0 0 0 .021-.031l.159.005a.2.2 0 0 1-.131.154A.326.326 0 0 1 .31.01Z" style="fill-rule:nonzero" transform="matrix(8.6984 0 0 25.04572 83.606 72.258)"/><path d="M.055 0v-.545h.169v.099h.005a.148.148 0 0 1 .049-.08.124.124 0 0 1 .079-.027l.024.002a.15.15 0 0 1 .024.004v.151C.397-.398.386-.401.373-.402a.26.26 0 0 0-.036-.003.116.116 0 0 0-.056.014.105.105 0 0 0-.052.095V0H.055Z" style="fill-rule:nonzero" transform="matrix(8.6984 0 0 25.04572 88.85 72.258)"/></g></g></svg>